# xmcd
#
# Track frame offsets:
#	182
#	18772
#	29850
#	38172
#	51672
#	66402
#	82212
#	95017
#	110617
#	123135
#	133987
#	145867
#	152732
#	164472
#
# Disc length: 2437 seconds
#
# Revision: 0
# Processed by: cddbd v1.4PL0 Copyright (c) Steve Scherf et al.
# Submitted via: dBpowerAMP V4.0
#
DISCID=d109830e
DTITLE=Anne SYLVESTRE - LA BALLADE DE CALIMITY JANE
DYEAR=1900
DGENRE=
TTITLE0=Ballade de Calimity Jane
TTITLE1=Cactus en Arizona
TTITLE2=Sous les Etoiles
TTITLE3=J'Suis une Traineuse
TTITLE4=Jalousie sous l'Arbre
TTITLE5=Chanson Melancolique à 3 Voix
TTITLE6=Reviens Beau Cow-Boy
TTITLE7=La Fille Perdue Qui s'y Retrouve
TTITLE8=Mimi Sofa
TTITLE9=Les Filles du Kentucky
TTITLE10=Berceuse en Hiver
TTITLE11=Viens Satan On Nous Attend
TTITLE12=Regarde-Toi Vieille Bete
TTITLE13=Pleure Ma Terre
EXTD=
EXTT0=
EXTT1=
EXTT2=
EXTT3=
EXTT4=
EXTT5=
EXTT6=
EXTT7=
EXTT8=
EXTT9=
EXTT10=
EXTT11=
EXTT12=
EXTT13=
PLAYORDER=
